<svg width="52" height="41.561" viewBox="0 0 52 41.561">
    <path d="M-70.375-26.439v-6.935H-74.9v-4.532h4.528V-44.84h4.532v18.4Zm8.97-9.207a9.2,9.2,0,0,1,9.2-9.2,9.2,9.2,0,0,1,9.2,9.2,9.2,9.2,0,0,1-9.2,9.2A9.2,9.2,0,0,1-61.4-35.646Zm4.532,0A4.668,4.668,0,0,0-52.2-30.978a4.668,4.668,0,0,0,4.668-4.668A4.668,4.668,0,0,0-52.2-40.315,4.668,4.668,0,0,0-56.872-35.646Zm-28.928.288L-91.653-29.5l-3.2-3.2,9.058-9.059,9.059,9.059-3.2,3.2ZM-70-49V-68h4v19Zm13.132-.6H-61.4V-68h4.532v13.869H-43V-49.6ZM-95-58.8A9.2,9.2,0,0,1-85.8-68a9.2,9.2,0,0,1,9.2,9.2,9.2,9.2,0,0,1-9.2,9.2A9.2,9.2,0,0,1-95-58.8Zm4.532,0A4.668,4.668,0,0,0-85.8-54.131,4.668,4.668,0,0,0-81.131-58.8,4.668,4.668,0,0,0-85.8-63.468,4.668,4.668,0,0,0-90.468-58.8Z" transform="translate(95 68)"/>
</svg>