<svg xmlns="http://www.w3.org/2000/svg" width="26" height="20.781" viewBox="0 0 26 20.781">
  <path id="logo" d="M-82.688-47.22v-3.468H-84.95v-2.266h2.264V-56.42h2.266v9.2Zm4.485-4.6a4.6,4.6,0,0,1,4.6-4.6,4.6,4.6,0,0,1,4.6,4.6,4.6,4.6,0,0,1-4.6,4.6,4.6,4.6,0,0,1-4.6-4.6Zm2.266,0a2.334,2.334,0,0,0,.684,1.651,2.334,2.334,0,0,0,1.652.683,2.334,2.334,0,0,0,2.334-2.334A2.334,2.334,0,0,0-73.6-54.158a2.334,2.334,0,0,0-2.335,2.334Zm-14.464.144-2.926,2.929-1.6-1.6L-90.4-54.88l4.529,4.529-1.6,1.6Zm7.9-6.821V-68h2v9.5Zm6.566-.3H-78.2V-68h2.266v6.935H-69V-58.8ZM-95-63.4A4.6,4.6,0,0,1-90.4-68a4.6,4.6,0,0,1,4.6,4.6,4.6,4.6,0,0,1-4.6,4.6A4.6,4.6,0,0,1-95-63.4Zm2.266,0A2.334,2.334,0,0,0-90.4-61.066,2.334,2.334,0,0,0-88.066-63.4,2.334,2.334,0,0,0-90.4-65.734,2.334,2.334,0,0,0-92.734-63.4Z" transform="translate(95 68)"/>
</svg>
