<svg width="30" height="30" viewBox="0 0 30 30">
    <path d="M-1742.153-473a14.98,14.98,0,0,1-9.147-5.01,15.11,15.11,0,0,1-3.7-9.914,15.016,15.016,0,0,1,4.393-10.66A14.864,14.864,0,0,1-1740-503a14.864,14.864,0,0,1,10.607,4.416,15.016,15.016,0,0,1,4.393,10.66,15.028,15.028,0,0,1-4.313,10.579,14.829,14.829,0,0,1-8.344,4.315v-10.535h3.5l.665-4.36h-4.16v-2.828a2.169,2.169,0,0,1,2.445-2.356h1.892v-3.71a22.9,22.9,0,0,0-3.358-.294c-3.548,0-5.666,2.193-5.666,5.866v3.322h-3.809v4.36h3.809v10.534l.191.029Z" transform="translate(1755 503)"/>
</svg>