<svg width="30" height="29.368" viewBox="0 0 30 29.368">
    <path d="M15.054,0a15.055,15.055,0,0,0-4.76,29.343c.758.139,1.026-.333,1.026-.73v-2.56c-4.205.915-5.092-2.024-5.092-2.024A4.03,4.03,0,0,0,4.555,21.82c-1.359-.924.111-.924.111-.924a3.17,3.17,0,0,1,2.3,1.553,3.216,3.216,0,0,0,4.381,1.257,3.2,3.2,0,0,1,.924-2.015c-3.346-.379-6.858-1.673-6.858-7.394a5.822,5.822,0,0,1,1.543-4.039,5.49,5.49,0,0,1,.148-3.983s1.266-.407,4.14,1.543a14.242,14.242,0,0,1,7.541,0c2.874-1.95,4.131-1.543,4.131-1.543a5.462,5.462,0,0,1,.185,3.956,5.822,5.822,0,0,1,1.543,4.039c0,5.786-3.521,7.052-6.876,7.394A3.558,3.558,0,0,1,18.8,24.436c0,2.015,0,3.641,0,4.131s.268.869,1.035.721A15.055,15.055,0,0,0,15.054,0Z" transform="translate(0.018)" fill-rule="evenodd"/>
</svg>