<svg width="30" height="30" viewBox="0 0 30 30">
  <path d="M-559.063-1351a8.948,8.948,0,0,1-8.937-8.937v-12.126a8.947,8.947,0,0,1,8.937-8.937h12.126a8.946,8.946,0,0,1,8.937,8.937v12.126a8.947,8.947,0,0,1-8.937,8.937Zm-5.919-21.063v12.126a5.92,5.92,0,0,0,5.919,5.919h12.126a5.92,5.92,0,0,0,5.919-5.919v-12.126a5.919,5.919,0,0,0-5.919-5.919h-12.126A5.919,5.919,0,0,0-564.982-1372.063Zm4.223,6.062a7.769,7.769,0,0,1,7.76-7.759,7.768,7.768,0,0,1,7.759,7.759,7.768,7.768,0,0,1-7.759,7.759A7.768,7.768,0,0,1-560.759-1366Zm3.019,0a4.741,4.741,0,0,0,4.741,4.741,4.74,4.74,0,0,0,4.74-4.741,4.741,4.741,0,0,0-4.74-4.741A4.741,4.741,0,0,0-557.741-1366Zm10.656-7.7a1.859,1.859,0,0,1,1.859-1.859,1.859,1.859,0,0,1,1.859,1.859,1.859,1.859,0,0,1-1.859,1.859A1.859,1.859,0,0,1-547.085-1373.7Z" transform="translate(568 1381)"/>
</svg>
