<svg width="30" height="24.377" viewBox="0 0 30 24.377">
  <path d="M84.434,122.827c11.321,0,17.513-9.379,17.513-17.513,0-.266,0-.532-.018-.8A12.523,12.523,0,0,0,105,101.333a12.286,12.286,0,0,1-3.535.968,6.176,6.176,0,0,0,2.706-3.4,12.335,12.335,0,0,1-3.908,1.494A6.161,6.161,0,0,0,89.773,106a17.474,17.474,0,0,1-12.685-6.431,6.16,6.16,0,0,0,1.906,8.216,6.109,6.109,0,0,1-2.794-.77v.078a6.157,6.157,0,0,0,4.938,6.034,6.145,6.145,0,0,1-2.779.106,6.162,6.162,0,0,0,5.75,4.274,12.35,12.35,0,0,1-7.644,2.64A12.53,12.53,0,0,1,75,120.062a17.425,17.425,0,0,0,9.434,2.76" transform="translate(-75 -98.45)"/>
</svg>
