<svg width="30" height="21.005" viewBox="0 0 30 21.005">
  <path d="M-598-1363.995c-.094,0-9.393-.007-11.739-.643a3.76,3.76,0,0,1-2.644-2.644A39.688,39.688,0,0,1-613-1374.5a39.843,39.843,0,0,1,.617-7.216,3.847,3.847,0,0,1,2.644-2.668c2.321-.611,11.644-.618,11.738-.618s9.417.007,11.739.643a3.759,3.759,0,0,1,2.643,2.644,37.755,37.755,0,0,1,.618,7.241,39.852,39.852,0,0,1-.617,7.216,3.759,3.759,0,0,1-2.644,2.643C-588.583-1364-597.906-1363.995-598-1363.995Zm-2.991-15v9l7.809-4.5-7.809-4.5Z" transform="translate(613 1385)"/>
</svg>
